<svg xmlns="http://www.w3.org/2000/svg" xmlns:xlink="http://www.w3.org/1999/xlink" width="164.755" height="120.093" viewBox="0 0 164.755 120.093">
  <defs>
    <linearGradient id="linear-gradient" x1="0.5" y1="1" x2="0.5" gradientUnits="objectBoundingBox">
      <stop offset="0" stop-color="gray" stop-opacity="0.251"/>
      <stop offset="0.54" stop-color="gray" stop-opacity="0.122"/>
      <stop offset="1" stop-color="gray" stop-opacity="0.102"/>
    </linearGradient>
  </defs>
  <g id="p-slide-3" transform="translate(0.03 0.01)">
    <path id="Path_1795" data-name="Path 1795" d="M900.439,88.915s-2.3-.935-9.618,2.417-8.232,2.93-10.127,2.417-2.95-.636-4.984-3.439c0,0-1.432-7.764-2.818-8.967s-7.277.686-7.277.686-7.061,1.621-8.407-7.813c0,0,.955-7.116-.346-9.3,0,0,2.625,1.131,6.957-.7s7.8,1.964,7.8,1.964A14.217,14.217,0,0,1,872.6,70.7c-.115,1.686.579,2.32,2.645,1.51,0,0,1.015-1.444-.423-3.83s-2.464-4.164-2.062-6.019a7.471,7.471,0,0,1,5.261-5.708c3.706-1.285,8.741-1.533,11.157-2.539a9.244,9.244,0,0,0,3-1.661s-1.486,1.489,2.016,7.806,1.27,9.063,1.27,9.063S893.6,73.759,885.371,73.4c0,0-7.928.29-3.605,3.652,0,0,2.767-.563,6.906-1.879s7.126,4.113,7.868,7.89A9.93,9.93,0,0,0,900.439,88.915Z" transform="translate(-735.713 -52.46)" fill="#a8569d"/>
    <path id="Path_1796" data-name="Path 1796" d="M1039.717,84.111l.042-.011c.319,1.208-3.225,6.042-6.253,9.9l-.036-.027C1037.743,88.539,1039.962,85.038,1039.717,84.111Z" transform="translate(-885.648 -79.33)" fill="#444053"/>
    <path id="Path_1797" data-name="Path 1797" d="M985.364,148.92l.018.05c-2.417,3.075-5.463,6.746-7.9,9.464-.231.26-.462.532-.684.81l-.069-.056c.224-.279.453-.553.687-.813C979.852,155.658,982.945,152,985.364,148.92Z" transform="translate(-837.478 -134.359)" fill="#444053"/>
    <path id="Path_1798" data-name="Path 1798" d="M945.522,216.41l.048.083c-4.432,5.533-4.725,14.124-4.735,14.2l-.935-1.078C939.915,229.537,941.059,221.982,945.522,216.41Z" transform="translate(-806.211 -191.655)" fill="#444053"/>
    <path id="Path_1799" data-name="Path 1799" d="M917.465,172.074s-5.226-2.719-9.3-1.742-13.242-3.445-13.242-3.445-3.892-1.581-4.682-3.385c0,0-2.672-2.823-2.825-4.287s-2.752-5.135-4.448-5.276" transform="translate(-757.879 -138.621)" fill="none" stroke="#444053" stroke-miterlimit="10" stroke-width="1"/>
    <path id="Path_1800" data-name="Path 1800" d="M1093.128,269.74s-2.631-1.773-2.326-3.84" transform="translate(-934.299 -233.67)" fill="none" stroke="#444053" stroke-miterlimit="10" stroke-width="1"/>
    <path id="Path_1801" data-name="Path 1801" d="M1056.332,268.684s-3.762-1.367-4.142-6.724" transform="translate(-901.54 -230.325)" fill="none" stroke="#444053" stroke-miterlimit="10" stroke-width="1"/>
    <path id="Path_1802" data-name="Path 1802" d="M1024.53,269.579a8.425,8.425,0,0,1-2.4-8.2" transform="translate(-875.812 -229.833)" fill="none" stroke="#444053" stroke-miterlimit="10" stroke-width="1"/>
    <path id="Path_1803" data-name="Path 1803" d="M984.636,259.4s-2.4-5.022-.264-8.291" transform="translate(-843.215 -221.114)" fill="none" stroke="#444053" stroke-miterlimit="10" stroke-width="1"/>
    <path id="Path_1804" data-name="Path 1804" d="M1099.279,252.08s-2.719.864-2.137,2.3" transform="translate(-939.633 -221.937)" fill="none" stroke="#444053" stroke-miterlimit="10" stroke-width="1"/>
    <path id="Path_1805" data-name="Path 1805" d="M1069.048,219.37s-3.642,1.155-3.728,6.308" transform="translate(-912.687 -194.168)" fill="none" stroke="#444053" stroke-miterlimit="10" stroke-width="1"/>
    <path id="Path_1806" data-name="Path 1806" d="M1039.041,211.5s-3.314,4.092-3.072,7.81" transform="translate(-887.759 -187.487)" fill="none" stroke="#444053" stroke-miterlimit="10" stroke-width="1"/>
    <path id="Path_1807" data-name="Path 1807" d="M1001.659,222.12s-3.293,3.148-2.87,4.9" transform="translate(-856.173 -196.503)" fill="none" stroke="#444053" stroke-miterlimit="10" stroke-width="1"/>
    <path id="Path_1808" data-name="Path 1808" d="M985.019,212.213s-3.087.554-3.519-.453" transform="translate(-841.527 -187.707)" fill="none" stroke="#444053" stroke-miterlimit="10" stroke-width="1"/>
    <path id="Path_1809" data-name="Path 1809" d="M978.24,190.08s1.56,2.066,1.964,1.6" transform="translate(-838.76 -169.302)" fill="none" stroke="#444053" stroke-miterlimit="10" stroke-width="1"/>
    <path id="Path_1810" data-name="Path 1810" d="M1026.974,171.421s-7.783.565-9.544-1.781" transform="translate(-872.03 -151.949)" fill="none" stroke="#444053" stroke-miterlimit="10" stroke-width="1"/>
    <path id="Path_1811" data-name="Path 1811" d="M967.4,121.16S971.052,129,973.7,130" transform="translate(-829.557 -110.792)" fill="none" stroke="#444053" stroke-miterlimit="10" stroke-width="1"/>
    <path id="Path_1812" data-name="Path 1812" d="M992.76,96.44s2.243,7.211,5.022,9.461" transform="translate(-851.086 -89.806)" fill="none" stroke="#444053" stroke-miterlimit="10" stroke-width="1"/>
    <path id="Path_1813" data-name="Path 1813" d="M1049.062,141.839s-5.918,2.541-9.472-.029" transform="translate(-890.843 -128.323)" fill="none" stroke="#444053" stroke-miterlimit="10" stroke-width="0.75"/>
    <path id="Path_1814" data-name="Path 1814" d="M1027.67,86.26s1.352,5.3,3.172,6.581" transform="translate(-880.724 -81.163)" fill="none" stroke="#444053" stroke-miterlimit="10" stroke-width="0.75"/>
    <path id="Path_1815" data-name="Path 1815" d="M1070.709,102.73s-3.323,1.258-4.569.3" transform="translate(-913.383 -95.146)" fill="none" stroke="#444053" stroke-miterlimit="10" stroke-width="0.75"/>
    <path id="Path_1816" data-name="Path 1816" d="M952.3,201.55s-.009,4.62-1.26,4.948" transform="translate(-815.668 -179.04)" fill="none" stroke="#444053" stroke-miterlimit="10" stroke-width="1"/>
    <path id="Path_1817" data-name="Path 1817" d="M891.3,229.142s4.995.426,7.3-2.142" transform="translate(-764.951 -200.646)" fill="none" stroke="#444053" stroke-miterlimit="10" stroke-width="1"/>
    <path id="Path_1818" data-name="Path 1818" d="M925.3,165.41s-1.208,4.682-4.543,5.948" transform="translate(-789.962 -148.358)" fill="none" stroke="#444053" stroke-miterlimit="10" stroke-width="1"/>
    <path id="Path_1819" data-name="Path 1819" d="M871.46,197.812a6.538,6.538,0,0,0,6.576-1.9" transform="translate(-748.108 -174.251)" fill="none" stroke="#444053" stroke-miterlimit="10" stroke-width="1"/>
    <path id="Path_1820" data-name="Path 1820" d="M910.777,138.74s-.334,3.98-2.5,5.842" transform="translate(-779.367 -125.717)" fill="none" stroke="#444053" stroke-miterlimit="10" stroke-width="1"/>
    <path id="Path_1821" data-name="Path 1821" d="M872.35,163.086s2.935.02,3.625-.936" transform="translate(-748.864 -145.591)" fill="none" stroke="#444053" stroke-miterlimit="10" stroke-width="1"/>
    <path id="Path_1822" data-name="Path 1822" d="M242.53,791.016a4.447,4.447,0,0,1,4-.382s-.613,1.181-3.136,1.069Z" transform="translate(-214.173 -678.859)" fill="#a8569d"/>
    <path id="Path_1823" data-name="Path 1823" d="M240.223,795.54a4.444,4.444,0,0,0,.921,3.914s.923-.961.008-3.312Z" transform="translate(-212.112 -683.312)" fill="#a8569d"/>
    <path id="Path_1824" data-name="Path 1824" d="M224.3,772.544s.151-1.982,4.622-1.325a2.135,2.135,0,0,1-1.55,1.883A2.581,2.581,0,0,1,224.3,772.544Z" transform="translate(-198.697 -662.552)" fill="#a8569d"/>
    <path id="Path_1825" data-name="Path 1825" d="M217.394,780.65s-1.891.6-.205,4.8a2.133,2.133,0,0,0,1.468-1.947A2.578,2.578,0,0,0,217.394,780.65Z" transform="translate(-192.066 -670.671)" fill="#a8569d"/>
    <path id="Path_1826" data-name="Path 1826" d="M205.7,745.428s-.255-3.26,4.315-2.924c0,0,.325,2.95-3.507,3.708Z" transform="translate(-182.9 -638.266)" fill="#a8569d"/>
    <path id="Path_1827" data-name="Path 1827" d="M185.72,721.96s.625-3.693,5.194-2.592c0,0,.018,3.193-4.45,3.474Z" transform="translate(-165.944 -618.471)" fill="#a8569d"/>
    <path id="Path_1828" data-name="Path 1828" d="M171.1,697.185s1.057-3.607,5.576-2.521a5.231,5.231,0,0,1-5.276,3.185Z" transform="translate(-153.532 -597.5)" fill="#a8569d"/>
    <path id="Path_1829" data-name="Path 1829" d="M157.22,672.034s1.026-3.734,5.4-2.613c0,0-1.459,3.548-5.108,3.249Z" transform="translate(-141.749 -576.064)" fill="#a8569d"/>
    <path id="Path_1830" data-name="Path 1830" d="M148.27,643.725s.788-4.566,4.864-3.556c0,0-1.184,4.154-4.563,4.22Z" transform="translate(-134.15 -551.285)" fill="#a8569d"/>
    <path id="Path_1831" data-name="Path 1831" d="M139.88,616.583s.947-4.6,5.066-3.264c0,0-1.618,4.35-4.779,3.9Z" transform="translate(-127.028 -528.406)" fill="#a8569d"/>
    <path id="Path_1832" data-name="Path 1832" d="M134.69,584.814s1.5-4.6,4.69-4.478c0,0-1.536,4.862-4.424,5.4Z" transform="translate(-122.622 -500.611)" fill="#a8569d"/>
    <path id="Path_1833" data-name="Path 1833" d="M131.39,555.52s1.634-5.542,4.229-5.113c0,0-1.131,4.229-4.137,5.977Z" transform="translate(-119.82 -475.184)" fill="#a8569d"/>
    <path id="Path_1834" data-name="Path 1834" d="M129.51,526.8s1.533-4.617,4.095-4.8c0,0-1.044,4.543-4.037,6Z" transform="translate(-118.224 -451.088)" fill="#a8569d"/>
    <path id="Path_1835" data-name="Path 1835" d="M127.46,498.688s1.912-4.623,3.6-4.728c0,0-.829,4.552-3.435,5.486Z" transform="translate(-116.484 -427.283)" fill="#a8569d"/>
    <path id="Path_1836" data-name="Path 1836" d="M126.05,468.147s1.175-5.021,2.87-5.437c0,0-.231,4.105-2.7,5.812Z" transform="translate(-115.287 -400.753)" fill="#a8569d"/>
    <path id="Path_1837" data-name="Path 1837" d="M121.85,438.081s1.236-4,2.6-4.611c0,0-.27,4.717-2.287,5.589Z" transform="translate(-111.721 -375.93)" fill="#a8569d"/>
    <path id="Path_1838" data-name="Path 1838" d="M116.939,401.485l-.249-7.055s2.556,5.326.438,8.3Z" transform="translate(-107.34 -342.786)" fill="#a8569d"/>
    <path id="Path_1839" data-name="Path 1839" d="M92.415,364.158s-1.843-5.152-2.285-5.438c0,0,3.614,3.343,3.261,7.643Z" transform="translate(-84.792 -312.47)" fill="#a8569d"/>
    <path id="Path_1840" data-name="Path 1840" d="M187.2,761.832s-3.241-.424-3.145,4.157c0,0,2.93.477,3.886-3.311Z" transform="translate(-164.531 -654.686)" fill="#a8569d"/>
    <path id="Path_1841" data-name="Path 1841" d="M165.261,736.87s-3.746-.014-3.441,4.682c0,0,3.143.562,4.181-3.791Z" transform="translate(-145.639 -633.504)" fill="#a8569d"/>
    <path id="Path_1842" data-name="Path 1842" d="M139.516,712.815s-3.4-1.587-5.576,2.521a5.234,5.234,0,0,0,5.877-1.856Z" transform="translate(-121.985 -612.825)" fill="#a8569d"/>
    <path id="Path_1843" data-name="Path 1843" d="M125.657,686.131s-3.482-1.7-5.527,2.325c0,0,3.625,1.248,5.814-1.689Z" transform="translate(-110.261 -590.126)" fill="#a8569d"/>
    <path id="Path_1844" data-name="Path 1844" d="M114.7,657.251s-3.35-3.2-6.025.036c0,0,3.424,2.634,6.179.677Z" transform="translate(-100.532 -564.711)" fill="#a8569d"/>
    <path id="Path_1845" data-name="Path 1845" d="M107.275,627.646s-3.371-3.275-6.025.151c0,0,3.785,2.686,6.144.536Z" transform="translate(-94.232 -539.578)" fill="#a8569d"/>
    <path id="Path_1846" data-name="Path 1846" d="M105.215,590.593s-2.6-4.078-5.655-3.172c0,0,2.695,4.329,5.626,4.136Z" transform="translate(-92.798 -506.516)" fill="#a8569d"/>
    <path id="Path_1847" data-name="Path 1847" d="M103.273,559.719s-2.621-5.149-5.093-4.255c0,0,1.887,3.957,5.16,5.12Z" transform="translate(-91.626 -479.409)" fill="#a8569d"/>
    <path id="Path_1848" data-name="Path 1848" d="M101.411,531.763s-2.69-4.054-5.211-3.559c0,0,2.2,4.11,5.472,4.731Z" transform="translate(-89.945 -456.319)" fill="#a8569d"/>
    <path id="Path_1849" data-name="Path 1849" d="M108.116,498.877s-2.084-4.548-3.776-4.587c0,0,1,4.516,3.64,5.351Z" transform="translate(-96.856 -427.563)" fill="#a8569d"/>
    <path id="Path_1850" data-name="Path 1850" d="M103.79,472.114s-2.318-4.605-4.06-4.614c0,0,1.187,3.938,3.981,5.021Z" transform="translate(-92.942 -404.82)" fill="#a8569d"/>
    <path id="Path_1851" data-name="Path 1851" d="M106.472,441.984s-1.734-3.812-3.172-4.244c0,0,.867,4.646,2.979,5.255Z" transform="translate(-95.973 -379.555)" fill="#a8569d"/>
    <path id="Path_1852" data-name="Path 1852" d="M95.207,407.091l-3.877-5.9s.992,5.821,4.439,7.026Z" transform="translate(-85.811 -348.525)" fill="#a8569d"/>
    <path id="Path_1853" data-name="Path 1853" d="M73.146,377.605S68.643,374.5,68.48,374c0,0,2.3,4.355,6.543,5.122Z" transform="translate(-66.412 -325.442)" fill="#a8569d"/>
    <path id="Path_1854" data-name="Path 1854" d="M61.085,360.7s-5.17-4.969-6.495-4.965a8.44,8.44,0,0,1,6.614,4.7Z" transform="translate(-54.62 -309.94)" fill="#a8569d"/>
    <path id="Path_1855" data-name="Path 1855" d="M100.518,398.72l-.189.024c-.971-7.6-2.388-12.1-3.989-12.654l.063-.18C98.1,386.5,99.518,390.929,100.518,398.72Z" transform="translate(-90.064 -335.553)" fill="#444053"/>
    <path id="Path_1856" data-name="Path 1856" d="M124.056,485.736l-.284.024c-.06-.71-.106-1.436-.137-2.16-.27-6.3-.692-12.074-1.245-16.408l.165-.2c.554,4.339,1.094,10.3,1.359,16.6C123.952,484.307,123.993,485.029,124.056,485.736Z" transform="translate(-112.179 -404.387)" fill="#444053"/>
    <path id="Path_1857" data-name="Path 1857" d="M153.367,622.466a37.063,37.063,0,0,1-10.259-7.594,41.317,41.317,0,0,1-7.5-10.624A48.125,48.125,0,0,1,131.25,587.5l.3.139A43.726,43.726,0,0,0,143.376,614.6a36.682,36.682,0,0,0,10.152,7.523Z" transform="translate(-119.701 -506.695)" fill="#444053"/>
    <path id="Path_1858" data-name="Path 1858" d="M292.743,154.836v91.357c0,2.719-2.621,4.926-5.857,4.926H162.936c-3.235,0-5.856-2.21-5.856-4.926V154.836a5.9,5.9,0,0,1,5.856-5.5l123.944.3C290.115,149.641,292.743,152.115,292.743,154.836Z" transform="translate(-141.63 -134.716)" fill="#e8eaf2"/>
    <path id="Path_1859" data-name="Path 1859" d="M292.743,154.864v4.229H157.08v-4.229a5.524,5.524,0,0,1,5.524-5.524h124.61a5.525,5.525,0,0,1,5.53,5.524Z" transform="translate(-141.63 -134.716)" fill="#65617d"/>
    <circle id="Ellipse_37" data-name="Ellipse 37" cx="1.951" cy="1.951" r="1.951" transform="translate(20.071 17.549)" fill="#fa5959" opacity="0.8"/>
    <circle id="Ellipse_38" data-name="Ellipse 38" cx="1.951" cy="1.951" r="1.951" transform="translate(25.751 17.549)" fill="#fed253" opacity="0.8"/>
    <circle id="Ellipse_39" data-name="Ellipse 39" cx="1.951" cy="1.951" r="1.951" transform="translate(31.431 17.549)" fill="#8ccf4d" opacity="0.8"/>
    <path id="Path_1860" data-name="Path 1860" d="M884.637,661.973l-3.3-4.777a4.5,4.5,0,0,0-.278-1.459c-.216-.276-.045-.893-.045-.893s.231-.338.03-.369-.03-.784-.03-.784l-.016-1.2a4.2,4.2,0,0,0,.032-1.429.453.453,0,0,1,.015-.491s.184-.662,0-.831a4.968,4.968,0,0,1-.092-2.013,3.056,3.056,0,0,0-.323-1.4c0-.124-1.217-1.322-1.217-1.429a3.041,3.041,0,0,0-1.232-.677c-.462-.122-.693-.214-.678-.276s-.723-.3-.723-.3a1.452,1.452,0,0,1-.894-.369c-.246-.323-1-.415-1.021-.418s-.011-.044-.015-.065l-.014-.07a3.365,3.365,0,0,0,.16-.3l.044-.094a1.314,1.314,0,0,0,.755-.236,1.038,1.038,0,0,0,.369-.737,1.61,1.61,0,0,0-.18-.819,1.388,1.388,0,0,1-.266-.864,3.878,3.878,0,0,1,.151-.37.982.982,0,0,0-.11-.728c-.118-.224-.279-.42-.409-.636a2.492,2.492,0,0,1-.326-.906,1.406,1.406,0,0,0-.119-.489.931.931,0,0,0-.27-.273,2.7,2.7,0,0,0-1.661-.5,8.172,8.172,0,0,1-1.255.076,4.416,4.416,0,0,1-.731-.192,1.9,1.9,0,0,0-1.563.08c-.45.3-.628.878-.933,1.332a10.792,10.792,0,0,0-.87,1.166v-.024a1.447,1.447,0,0,0-.115.311,2.224,2.224,0,0,0,.068,1.018.715.715,0,0,0,.249.453,1.47,1.47,0,0,0,.539.106.487.487,0,0,1-.021.088,3.516,3.516,0,0,0,2.442,4.1v.094a2.137,2.137,0,0,1-.016.264h0a5.347,5.347,0,0,0-1.964-.1c-.415.216-1.233.384-1.359.508s-.432.03-.71.755-.3,1.46-.662,1.8-.539.568-.554.814.045.3-.094.384-.338.4-.276.523a.439.439,0,0,1-.169.462.509.509,0,0,0-.216.453s-.092.338-.3.415-.355.583-.355.583l-.7.8-1.385-1.532a.586.586,0,0,0-.825-.042l-.68.6a1.348,1.348,0,0,0-.68.4,1.784,1.784,0,0,0-.353.524l-.372.335a.946.946,0,0,0-.1,1.045l.887.98v.009a1.566,1.566,0,0,0-.84.364c-1.325,1.168-1.341,2.244-1.14,2.735a20.7,20.7,0,0,0,1.879,2.384,7.522,7.522,0,0,0,2.383,1.942h0l-.011.011c-.027.03-.056.062-.083.1l-.023.029a.343.343,0,0,1-.021.03l-.024.036-.019.03-.027.045-.017.029-.032.06a.168.168,0,0,0-.011.02c0,.008-.026.054-.038.083a.27.27,0,0,0-.012.032c-.009.02-.017.041-.024.06l-.014.041a.222.222,0,0,1-.02.059l-.013.044-.018.068a.138.138,0,0,1-.012.041c0,.014-.017.072-.024.11a.364.364,0,0,1-.008.044l-.014.08a.147.147,0,0,1-.008.056l-.009.076v.352a8.489,8.489,0,0,0,.074,2.06,1,1,0,0,0,.817.613,1.068,1.068,0,0,0,.264-.014,15.22,15.22,0,0,1,3.343-.338,5.749,5.749,0,0,0,1.661-.134l.139-.027.1.3.3-.083.26.151c.068.041.124.073.163.094.3,1.032,1.538.68,1.538.68l.293.169,2.973.077a6.029,6.029,0,0,0,1.057.5.972.972,0,0,0,.151.033,6.974,6.974,0,0,0,.829.015c.228,0,.4-.015.4-.015s-.03-.808-.073-1.711a24.187,24.187,0,0,0,2.754-.225,3.392,3.392,0,0,0,2.494-2.5,7.192,7.192,0,0,1,.151.958,7.145,7.145,0,0,0,.246.831,2.812,2.812,0,0,0,.34.615c1.171-.4.462-1,.216-1.261s.169-.476.169-.476.323-.216.293-.415-.047-.415,1-.4S884.637,661.973,884.637,661.973Zm-16.269-9.818a7.2,7.2,0,0,0,.291,1.284,1.64,1.64,0,0,1,.035.508c-.621-.05-1.267-.077-1.267-.077a.151.151,0,0,1,.033.08l-.1-.023-.142-.035,1.143-1.738Zm-2.266,3.605,1.075.169.089.015a3.806,3.806,0,0,0-.056.507c0,.015.026.035.059.057a1.366,1.366,0,0,0-.02.254,2.97,2.97,0,0,0,1.1.421c-.008.032-.015.06-.024.088h0c-.509-.267-1.31-.393-1.4-.591a20.8,20.8,0,0,0-2.82-1.148s-.1-.053-.272-.136l.719.136.2-.02a10.65,10.65,0,0,0,1.359.249Z" transform="translate(-736.536 -547.466)" fill="url(#linear-gradient)"/>
    <path id="Path_1861" data-name="Path 1861" d="M903,782.579s-.427,2.581-2.6,2.962a92.151,92.151,0,0,1-9.405.3s-4.137-.6-5.634-4.093-2.457-4.885-1.175-4.947,8.2,2.337,8.6,2.367S903.381,773.861,903,782.579Z" transform="translate(-758.406 -667.404)" fill="#65617d"/>
    <path id="Path_1862" data-name="Path 1862" d="M903,782.579s-.427,2.581-2.6,2.962a92.151,92.151,0,0,1-9.405.3s-4.137-.6-5.634-4.093-2.457-4.885-1.175-4.947,8.2,2.337,8.6,2.367S903.381,773.861,903,782.579Z" transform="translate(-758.406 -667.404)" opacity="0.05"/>
    <path id="Path_1863" data-name="Path 1863" d="M883.185,812.089a.99.99,0,0,0,.81.6,1.044,1.044,0,0,0,.261-.014,15.427,15.427,0,0,1,3.314-.335,5.687,5.687,0,0,0,1.645-.135c.346-.065.6-.125.6-.125s-.612-2.031-.687-2.092-2.749-1.661-2.749-1.661l-2.115-.151h0a1.121,1.121,0,0,0-.717.421,2.252,2.252,0,0,0-.427,1.441A8.353,8.353,0,0,0,883.185,812.089Z" transform="translate(-758.001 -694.043)" fill="#3f3d56"/>
    <path id="Path_1864" data-name="Path 1864" d="M883.176,812.064a.989.989,0,0,0,.81.6,8.513,8.513,0,0,1-.574-.838l.011-1.48a2.61,2.61,0,0,1,.831-2.2h0s-1.115.076-1.145,1.862A9.063,9.063,0,0,0,883.176,812.064Z" transform="translate(-757.991 -694.017)" opacity="0.05"/>
    <path id="Path_1865" data-name="Path 1865" d="M937.4,786.584l1.964-1.542,3.1-3.054s-.334-.017-.84-.038c-.125.08-.477.332-.491.637-.015.373-.837.026-1.264.24s-2.519,2.891-2.886,2.87-.657-.186-.81.074l-.01.017Z" transform="translate(-803.036 -671.774)" opacity="0.1"/>
    <path id="Path_1866" data-name="Path 1866" d="M885.93,808.657l.214.1a13.3,13.3,0,0,1,3.474,2.229,14.393,14.393,0,0,0,1.982,1.285c.346-.065.6-.125.6-.125s-.612-2.032-.687-2.092-2.749-1.661-2.749-1.661l-2.115-.151h0A1.121,1.121,0,0,0,885.93,808.657Z" transform="translate(-760.392 -694.094)" opacity="0.1"/>
    <path id="Path_1867" data-name="Path 1867" d="M857.9,764.626a20.541,20.541,0,0,0,1.864,2.367,7.356,7.356,0,0,0,2.55,2.015,13.6,13.6,0,0,1,3.481,2.229,16.959,16.959,0,0,0,2.115,1.368l.189.11.417.242.22.127,1.02-.823c.5-.408,1-.819,1.011-.841.015-.045.214-.565.168-.6-.023-.017-.128-.227-.322-.473a2.144,2.144,0,0,0-.778-.642,2.216,2.216,0,0,1-1.007-1.057s-.067-.048-.168-.112a2.022,2.022,0,0,0-.687-.3c-.335-.042-.961-.73-.961-.73a1.88,1.88,0,0,1-.6-.625,22.061,22.061,0,0,0-2.747-2.115l5.74,3.687,1.373.882,1.964-1.542,3.1-3.053s-.417-.021-1.024-.047c-1.51-.065-4.181-.168-4.519-.091a2.6,2.6,0,0,1-.84.054,2.95,2.95,0,0,1-1.267-.232c-.512-.267-1.3-.39-1.389-.588A20.5,20.5,0,0,0,864,762.7s-3.679-1.955-4.993-.795S857.7,764.136,857.9,764.626Z" transform="translate(-736.511 -654.443)" fill="#65617d"/>
    <path id="Path_1868" data-name="Path 1868" d="M937,682.327l.473,1.572.6,3.542,2.245.151.65-1.077.648-1.075s.4-1.432.695-2.815c.257-1.226.424-2.417.151-2.544-.248-.115-.411-.527-.517-.971-.014-.054-.026-.11-.036-.166a8.6,8.6,0,0,1-.151-1.139s-4.7-.243-4.046,1.7a3.069,3.069,0,0,1,.177,1.03,2.424,2.424,0,0,1-.015.263A2.2,2.2,0,0,1,937,682.327Z" transform="translate(-803.749 -583.352)" fill="#ee8e9e"/>
    <path id="Path_1869" data-name="Path 1869" d="M930.51,698.966l.168,2.672.382,2.275.427,1.057.382,5.765s3.681.426,4.577-.008a.4.4,0,0,0,.162-.127c1.075-1.637.728-6.36.728-6.36l.412-3.053-.275-1.586-.665-.07-.512-.056s-.115.142-.281.363c-.453.6-1.285,1.773-1.229,2.266.075.672-.092,1.359-.352,1.467s-.473.29-.52.106a.832.832,0,0,1-.045-.488,4.073,4.073,0,0,0-.2-1.057,4.419,4.419,0,0,1-.382-1.328,1.566,1.566,0,0,0-.168-.962c-.122-.107-.29-.214-.151-.7s-.6-1.44-.6-1.44Z" transform="translate(-798.239 -600.25)" fill="#e3e8f4"/>
    <path id="Path_1870" data-name="Path 1870" d="M962.675,695.978l.151,4.566.882.488a.384.384,0,0,0,.162-.125c1.081-1.634.727-6.363.727-6.363l.412-3.054-.275-1.584-.663-.071c.257-1.225.424-2.417.151-2.544-.248-.115-.411-.527-.517-.97h0l-.476,3.229s.039.292.053.592a1.665,1.665,0,0,1-.038.568,1.892,1.892,0,0,0-.03.764,6.177,6.177,0,0,0-.48,2.25C962.64,694.881,962.675,695.978,962.675,695.978Z" transform="translate(-825.54 -590.589)" opacity="0.1"/>
    <path id="Path_1871" data-name="Path 1871" d="M964.222,685.83s.77.1,1.013.417a1.446,1.446,0,0,0,.887.367,3.365,3.365,0,0,1,.717.3c-.015.059.213.151.672.275a3.016,3.016,0,0,1,1.22.672c0,.107,1.208,1.3,1.208,1.42a3.029,3.029,0,0,1,.32,1.39,4.931,4.931,0,0,0,.092,2c.183.168,0,.825,0,.825a.453.453,0,0,0-.015.488,4.229,4.229,0,0,1-.03,1.42l.015,1.192s-.168.755.03.778-.03.367-.03.367-.168.6.045.885a4.545,4.545,0,0,1,.275,1.451l3.267,4.749s.047.87-.992.855-1.023.2-.992.4-.29.411-.29.411-.412.214-.168.474.947.855-.214,1.252a2.8,2.8,0,0,1-.335-.6,6.876,6.876,0,0,1-.245-.823s-.107-1.161-.32-1.314-.178-.89-.178-.89.3-.6-.122-.84-6.628-3.679-6.628-3.679l-.151-4.566s-.106-3.374.535-4.5a1.922,1.922,0,0,1,.03-.764,4,4,0,0,0-.015-1.16Z" transform="translate(-826.048 -590.173)" fill="#3f3d56"/>
    <path id="Path_1872" data-name="Path 1872" d="M911.751,697.008a5.321,5.321,0,0,0-1.947-.1c-.412.213-1.222.382-1.344.5s-.427.03-.7.755-.3,1.452-.657,1.787-.533.565-.548.81.045.3-.092.382-.337.4-.275.518,3.172,2.809,3.172,2.809a7.161,7.161,0,0,0,.29,1.282,12.843,12.843,0,0,1-.453,4.078c-.3.245,2.062.221,2.062.221s.107-2.344.2-2.465a24.23,24.23,0,0,0-.062-2.627,15.009,15.009,0,0,1,.183-2.7,12.4,12.4,0,0,0,.177-2.442,5.056,5.056,0,0,1,.388-1.39C912.353,698.162,911.751,697.008,911.751,697.008Z" transform="translate(-777.578 -599.512)" opacity="0.1"/>
    <path id="Path_1873" data-name="Path 1873" d="M911.451,696.664a5.3,5.3,0,0,0-1.949-.1c-.412.214-1.22.382-1.343.5s-.427.03-.7.748-.3,1.45-.657,1.787-.535.565-.55.808.047.3-.091.382-.337.4-.275.52,3.179,2.806,3.179,2.806a7.187,7.187,0,0,0,.29,1.282,12.848,12.848,0,0,1-.453,4.078c-.3.246,2.053.228,2.053.228s.107-2.344.2-2.467a24.6,24.6,0,0,0-.06-2.627,14.989,14.989,0,0,1,.183-2.7,12.4,12.4,0,0,0,.177-2.442,5.053,5.053,0,0,1,.388-1.39C912.052,697.815,911.451,696.664,911.451,696.664Z" transform="translate(-777.323 -599.22)" fill="#3f3d56"/>
    <path id="Path_1874" data-name="Path 1874" d="M941.376,679.511a3.066,3.066,0,0,1,.177,1.03,3.5,3.5,0,0,0,4.019-1.587,8.537,8.537,0,0,1-.151-1.139S940.719,677.572,941.376,679.511Z" transform="translate(-807.41 -583.36)" opacity="0.1"/>
    <path id="Path_1875" data-name="Path 1875" d="M926.37,653.466a3.492,3.492,0,1,0,.075-.726A3.492,3.492,0,0,0,926.37,653.466Z" transform="translate(-794.724 -559.729)" fill="#ee8e9e"/>
    <path id="Path_1876" data-name="Path 1876" d="M894.319,726.7l-.832.26a.435.435,0,0,1-.169.453.512.512,0,0,0-.213.453s-.092.337-.3.412-.352.582-.352.582l-.7.808s-.26.215-.213.322-.275.138-.275.138l.168,2.719,1.45.275.906-.092.732-.275.64-.381.292-.755,1.282-1.955Z" transform="translate(-764.917 -624.87)" fill="#3f3d56"/>
    <path id="Path_1877" data-name="Path 1877" d="M871.562,741.493s-1.862-2.687-3.252-1.237.565,3.8,1.023,3.726,2.642-.2,2.642-.2Z" transform="translate(-745.017 -636.014)" fill="#ee8e9e"/>
    <rect id="Rectangle_83" data-name="Rectangle 83" width="9.75" height="7.57" rx="1.54" transform="translate(122.472 100.005) rotate(27.04)" fill="#3f3d56"/>
    <rect id="Rectangle_84" data-name="Rectangle 84" width="8.196" height="6.176" transform="translate(122.861 100.97) rotate(27.04)" fill="#a8569d"/>
    <circle id="Ellipse_40" data-name="Ellipse 40" cx="0.134" cy="0.134" r="0.134" transform="translate(121.049 103.436)" fill="#e6e8ec"/>
    <circle id="Ellipse_41" data-name="Ellipse 41" cx="0.222" cy="0.222" r="0.222" transform="translate(128.862 107.396)" fill="#e6e8ec"/>
    <path id="Path_1878" data-name="Path 1878" d="M884.62,749.286c-.015,2.016,4.152,2.442,4.152,2.442l1.057.169.477.076.2-1.964s-.219-.032-.492-.1c-.4-.1-.926-.257-1.035-.485C888.8,749.044,884.635,747.271,884.62,749.286Z" transform="translate(-759.28 -643.242)" fill="#ee8e9e"/>
    <path id="Path_1879" data-name="Path 1879" d="M926.87,652.808a.408.408,0,0,1,.255.115c.119.125.125.346.278.423a.3.3,0,0,0,.183.021c.406-.057.641-.515,1.03-.642a1.058,1.058,0,0,1,.684.059.506.506,0,0,1,.225.151c.131.169.039.418.1.622.085.284.423.4.716.434a1.254,1.254,0,0,1,.819.278.746.746,0,0,1,.151.592.461.461,0,0,0,0,.218c.082.23.477.195.582.015.075-.131.051-.242.23-.278a.764.764,0,0,1,.375.065,2.73,2.73,0,0,0,.967.151,3.5,3.5,0,1,0-6.585-2.214Z" transform="translate(-795.149 -559.797)" opacity="0.1"/>
    <path id="Path_1880" data-name="Path 1880" d="M926.467,644.418a.465.465,0,0,1,0-.219.745.745,0,0,0-.151-.591,1.241,1.241,0,0,0-.819-.279c-.293-.036-.631-.151-.716-.433-.06-.2.032-.453-.1-.621a.482.482,0,0,0-.225-.151,1.032,1.032,0,0,0-.684-.059c-.39.125-.624.585-1.03.642a.328.328,0,0,1-.183-.021c-.151-.077-.16-.3-.278-.424-.184-.2-.536-.07-.764-.214a.707.707,0,0,1-.246-.453,2.217,2.217,0,0,1-.068-1.012c.133-.568.64-.958.965-1.442.3-.453.471-1.024.926-1.323a1.855,1.855,0,0,1,1.548-.08,4.536,4.536,0,0,0,.725.19,8.007,8.007,0,0,0,1.243-.076,2.674,2.674,0,0,1,1.642.5.918.918,0,0,1,.267.272,1.389,1.389,0,0,1,.119.485,2.484,2.484,0,0,0,.322.894c.128.214.29.409.406.631a.977.977,0,0,1,.109.723c-.039.125-.116.239-.151.367a1.369,1.369,0,0,0,.263.858,1.632,1.632,0,0,1,.178.814,1.026,1.026,0,0,1-.367.733,1.309,1.309,0,0,1-.773.234,2.735,2.735,0,0,1-.986-.151.779.779,0,0,0-.373-.065c-.178.038-.151.151-.231.278C926.944,644.615,926.548,644.646,926.467,644.418Z" transform="translate(-790.313 -549.234)" fill="#3f3d56"/>
    <path id="Path_1881" data-name="Path 1881" d="M936,787.142l1.964-1.542,3.1-3.053s-.417-.021-1.024-.047a.676.676,0,0,0-.216.417c-.015.373-.837.026-1.264.24s-2.519,2.891-2.886,2.87-.657-.186-.81.074l-.011.017a.438.438,0,0,1-.233.139Z" transform="translate(-801.728 -672.242)" opacity="0.1"/>
    <path id="Path_1882" data-name="Path 1882" d="M917.47,781.065l.986,3.158.151.5.471-.13,1.039-.285,4.628-1.27a4.021,4.021,0,0,0,1.661-.453,5.049,5.049,0,0,1,2.87-.627c.6.057,1.291-.207,1.856-1.249,0,0,1.282-3.787-1.954-4.871s-3.392.577-3.392.577l-.044.027c-.125.08-.477.332-.491.637-.015.373-.837.026-1.264.24s-2.519,2.891-2.886,2.87-.657-.186-.81.074l-.011.017c-.113.151-.453.192-.678.2h-.211l-.029.009-.236.069Z" transform="translate(-787.169 -666.271)" fill="#65617d"/>
    <path id="Path_1883" data-name="Path 1883" d="M919.16,760.743l.477.076.2-1.964s-.219-.032-.492-.1A9.974,9.974,0,0,1,919.16,760.743Z" transform="translate(-788.603 -652.087)" opacity="0.1"/>
    <path id="Path_1884" data-name="Path 1884" d="M932.054,710.729s1.42-.412,1.068,3.625a11.248,11.248,0,0,1-2.977,6.581s-3.021,1.328-4.38,1.115-2.352-.26-2.352-.26a3.445,3.445,0,0,0-1.374-.367,6.414,6.414,0,0,1-2.4-.657,14.3,14.3,0,0,0,.213-2.568,13.988,13.988,0,0,1,2.352.243c.213.156.52.044.755,0a2.6,2.6,0,0,1,2.32-.121,1.419,1.419,0,0,0,.657-.076.658.658,0,0,1,.477-.032,1.334,1.334,0,0,0,.332-.168c.045-.06.412,0,.412,0a.161.161,0,0,0,.228-.107,1.012,1.012,0,0,1,.214-.335,8.674,8.674,0,0,1,1.19-3.192.494.494,0,0,0,.168-.443C928.893,713.715,930.22,710.234,932.054,710.729Z" transform="translate(-789.011 -611.27)" opacity="0.1"/>
    <path id="Path_1885" data-name="Path 1885" d="M931.8,708.645s1.42-.412,1.068,3.625a11.249,11.249,0,0,1-2.977,6.581s-3.021,1.328-4.38,1.115-2.352-.26-2.352-.26a3.436,3.436,0,0,0-1.374-.367,6.416,6.416,0,0,1-2.4-.657,14.452,14.452,0,0,0,.215-2.568,13.961,13.961,0,0,1,2.35.243c.213.156.52.044.755,0a2.6,2.6,0,0,1,2.32-.121,1.4,1.4,0,0,0,.657-.077.662.662,0,0,1,.477-.03,1.328,1.328,0,0,0,.332-.168c.045-.06.412,0,.412,0a.162.162,0,0,0,.228-.107,1.007,1.007,0,0,1,.214-.335,8.672,8.672,0,0,1,1.19-3.192.5.5,0,0,0,.169-.443C928.643,711.638,929.972,708.156,931.8,708.645Z" transform="translate(-788.798 -609.502)" fill="#3f3d56"/>
    <path id="Path_1886" data-name="Path 1886" d="M928.56,808.809l2.018,2.441.012-.014c.015-.047.213-.566.168-.6a2.838,2.838,0,0,0-1.1-1.115,2.073,2.073,0,0,1-.863-.785Z" transform="translate(-796.583 -694.518)" opacity="0.1"/>
    <path id="Path_1887" data-name="Path 1887" d="M928.5,822.006l.22.127,1.02-.823c.5-.408,1-.819,1.01-.841.015-.045.214-.565.168-.6-.023-.016-.128-.227-.322-.473-1.359-.382-.5.566-.381.6a1.393,1.393,0,0,0-1.755,1.43A2.154,2.154,0,0,0,928.5,822.006Z" transform="translate(-796.499 -703.492)" opacity="0.1"/>
    <path id="Path_1888" data-name="Path 1888" d="M930.983,822.776l.29.168,2.947.076a5.97,5.97,0,0,0,1.044.5.9.9,0,0,0,.151.032,6.533,6.533,0,0,0,.822.015c.225,0,.4-.015.4-.015s-.14-3.716-.245-4.107c-.051-.187-.3-.151-.541-.053a3.6,3.6,0,0,0-.529.267,9.3,9.3,0,0,0-1.45.23c-.2.109-.764-.062-1.115,0s-.977-.414-.977-.414c-1.71-.565-.755.489-.627.535a1.393,1.393,0,0,0-1.755,1.43A1.178,1.178,0,0,0,930.983,822.776Z" transform="translate(-797.292 -703.493)" fill="#3f3d56"/>
    <path id="Path_1889" data-name="Path 1889" d="M968.107,821.352a4.972,4.972,0,0,0,.991,2.229c.225,0,.4-.015.4-.015s-.141-3.716-.245-4.107c-.051-.187-.3-.151-.541-.053A4.414,4.414,0,0,0,968.107,821.352Z" transform="translate(-830.156 -703.505)" fill="#565387"/>
    <path id="Path_1890" data-name="Path 1890" d="M968.107,821.352a4.972,4.972,0,0,0,.991,2.229c.225,0,.4-.015.4-.015s-.141-3.716-.245-4.107c-.051-.187-.3-.151-.541-.053A4.414,4.414,0,0,0,968.107,821.352Z" transform="translate(-830.156 -703.505)" opacity="0.1"/>
    <path id="Path_1891" data-name="Path 1891" d="M964.5,821.455a8.722,8.722,0,0,0,.524,2.08.913.913,0,0,0,.151.032,6.533,6.533,0,0,0,.822.015c.225,0,.4-.015.4-.015s-.141-3.716-.245-4.107c-.051-.187-.3-.151-.541-.053a3.608,3.608,0,0,0-.529.267A2.047,2.047,0,0,0,964.5,821.455Z" transform="translate(-827.053 -703.505)" opacity="0.05"/>
    <path id="Path_1892" data-name="Path 1892" d="M897.47,783.54a6.1,6.1,0,0,1,2.7,2.164Z" transform="translate(-770.189 -673.124)" opacity="0.1"/>
    <g id="Group_1536" data-name="Group 1536" transform="translate(130.863 91.052)" opacity="0.1">
      <path id="Path_1893" data-name="Path 1893" d="M975.88,662.24l-.009.033a.746.746,0,1,1,.009-.033Z" transform="translate(-967.568 -661.198)"/>
      <path id="Path_1894" data-name="Path 1894" d="M921.216,655.642a1.429,1.429,0,0,1,.113-.3.4.4,0,0,1-.021.079,2.182,2.182,0,0,0,.068,1.013.7.7,0,0,0,.246.453c.227.151.579.02.764.216.118.124.124.346.278.423a.315.315,0,0,0,.183.021c.4-.057.64-.517,1.03-.642a1.027,1.027,0,0,1,.683.059.519.519,0,0,1,.227.151c.13.169.039.417.1.622.083.282.421.4.714.432a1.254,1.254,0,0,1,.82.279.755.755,0,0,1,.151.591.452.452,0,0,0,0,.219c.08.23.476.195.58.014.075-.131.053-.24.231-.276a.743.743,0,0,1,.373.065,2.774,2.774,0,0,0,.986.151,1.326,1.326,0,0,0,.775-.236.877.877,0,0,0,.237-.288.97.97,0,0,1-.329.518,1.312,1.312,0,0,1-.773.234,2.737,2.737,0,0,1-.986-.151.783.783,0,0,0-.375-.065c-.178.038-.151.151-.231.278-.1.181-.5.215-.58-.014a.491.491,0,0,1,0-.219.738.738,0,0,0-.151-.591,1.239,1.239,0,0,0-.819-.279c-.293-.036-.631-.151-.716-.433-.061-.2.032-.453-.1-.621a.489.489,0,0,0-.225-.151,1.032,1.032,0,0,0-.684-.059c-.39.125-.625.585-1.03.642a.328.328,0,0,1-.183-.021c-.151-.077-.16-.3-.278-.424-.186-.2-.536-.069-.764-.214a.7.7,0,0,1-.246-.453A2.2,2.2,0,0,1,921.216,655.642Z" transform="translate(-921.185 -655.34)"/>
    </g>
    <path id="Path_1895" data-name="Path 1895" d="M970.919,734.138c-.281.378-.6.727-.847,1.127a2.14,2.14,0,0,0-.372,1.332,3.481,3.481,0,0,0,.536-.955,13.453,13.453,0,0,1,1.027-1.545c.065-.1.486-.665.273-.69C971.36,733.384,971.014,734.009,970.919,734.138Z" transform="translate(-831.507 -630.563)" opacity="0.1"/>
    <path id="Path_1896" data-name="Path 1896" d="M268.552,366.6h-12.5a.417.417,0,1,0,0,.832h12.5a.417.417,0,1,0,0-.832Zm0,1.427h-12.5a.417.417,0,0,0,0,.834h12.5a.417.417,0,1,0,0-.834Zm-.627-9.634H256.684a1.047,1.047,0,0,0-1.045,1.044v5.286a1.047,1.047,0,0,0,1.045,1.044h11.241a1.047,1.047,0,0,0,1.044-1.044v-5.286A1.047,1.047,0,0,0,267.925,358.39Zm-9.846,6.427h-1.071a.417.417,0,0,1,0-.834h1.071a.417.417,0,0,1,0,.834Zm0-4.642h-1.071a.417.417,0,0,1,0-.834h1.071a.417.417,0,1,1,0,.834Zm4.229,4.284a2.38,2.38,0,1,1,2.38-2.38,2.38,2.38,0,0,1-2.38,2.38Zm5.3.358h-1.071a.417.417,0,0,1,0-.834H267.6a.417.417,0,1,1,0,.834Zm0-4.642h-1.071a.417.417,0,0,1,0-.834H267.6a.417.417,0,1,1,0,.834Z" transform="translate(-225.281 -312.19)" fill="#fff"/>
    <circle id="Ellipse_42" data-name="Ellipse 42" cx="1.577" cy="1.577" r="1.577" transform="translate(35.447 48.369)" fill="#fff"/>
    <rect id="Rectangle_85" data-name="Rectangle 85" width="56.745" height="31.504" transform="translate(60.911 35.68)" fill="#a8569d" opacity="0.2"/>
    <rect id="Rectangle_86" data-name="Rectangle 86" width="56.745" height="31.504" transform="translate(60.911 74.232)" fill="#a8569d" opacity="0.2"/>
    <rect id="Rectangle_87" data-name="Rectangle 87" width="1.717" height="5.755" transform="translate(72.07 57.617)" fill="#fff"/>
    <rect id="Rectangle_88" data-name="Rectangle 88" width="1.717" height="12.879" transform="translate(75.34 50.493)" fill="#fff"/>
    <rect id="Rectangle_89" data-name="Rectangle 89" width="1.717" height="19.299" transform="translate(78.612 44.073)" fill="#dfe3ef"/>
    <rect id="Rectangle_90" data-name="Rectangle 90" width="1.717" height="23.878" transform="translate(81.883 39.494)" fill="#fff"/>
    <rect id="Rectangle_91" data-name="Rectangle 91" width="1.717" height="23.878" transform="translate(78.612 39.494)" fill="#a8569d"/>
    <rect id="Rectangle_92" data-name="Rectangle 92" width="1.717" height="13.126" transform="translate(85.153 50.246)" fill="#a8569d"/>
    <rect id="Rectangle_93" data-name="Rectangle 93" width="1.717" height="16.518" transform="translate(88.425 46.854)" fill="#a8569d" opacity="0.2"/>
    <rect id="Rectangle_94" data-name="Rectangle 94" width="1.717" height="21.67" transform="translate(91.695 41.702)" fill="#a8569d"/>
    <rect id="Rectangle_95" data-name="Rectangle 95" width="1.717" height="9.65" transform="translate(94.967 53.722)" fill="#a8569d" opacity="0.2"/>
    <rect id="Rectangle_96" data-name="Rectangle 96" width="1.717" height="14.106" transform="translate(98.238 49.266)" fill="#a8569d"/>
    <rect id="Rectangle_97" data-name="Rectangle 97" width="1.717" height="19.299" transform="translate(101.508 44.073)" fill="#a8569d" opacity="0.2"/>
    <rect id="Rectangle_98" data-name="Rectangle 98" width="1.717" height="19.299" transform="translate(104.78 44.073)" fill="#a8569d"/>
    <path id="Path_1897" data-name="Path 1897" d="M269.08,617.7a.955.955,0,0,0-.952-.952h-11.42a.956.956,0,0,0-.953.952v1.429H269.08Zm-13.33,7.617a.956.956,0,0,0,.953.953h11.425a.955.955,0,0,0,.952-.953v-4.755H255.755Zm4.229-1.427h4.88a.417.417,0,1,1,0,.832h-4.88a.417.417,0,0,1,0-.832Zm-2.142,0h.356a.417.417,0,1,1,0,.832h-.356a.417.417,0,1,1,0-.832Z" transform="translate(-225.396 -531.527)" fill="#fff"/>
    <rect id="Rectangle_99" data-name="Rectangle 99" width="1.717" height="5.755" transform="translate(72.07 96.168)" fill="#fff"/>
    <rect id="Rectangle_100" data-name="Rectangle 100" width="1.717" height="12.879" transform="translate(75.34 89.043)" fill="#fff"/>
    <rect id="Rectangle_101" data-name="Rectangle 101" width="1.717" height="19.299" transform="translate(78.612 82.624)" fill="#dfe3ef"/>
    <rect id="Rectangle_102" data-name="Rectangle 102" width="1.717" height="23.878" transform="translate(81.883 78.044)" fill="#fff"/>
    <rect id="Rectangle_103" data-name="Rectangle 103" width="1.717" height="23.878" transform="translate(78.612 78.044)" fill="#a8569d"/>
    <rect id="Rectangle_104" data-name="Rectangle 104" width="1.717" height="13.126" transform="translate(85.153 88.797)" fill="#a8569d"/>
    <rect id="Rectangle_105" data-name="Rectangle 105" width="1.717" height="16.518" transform="translate(88.425 85.404)" fill="#fff"/>
    <rect id="Rectangle_106" data-name="Rectangle 106" width="1.717" height="21.67" transform="translate(91.695 80.252)" fill="#fff"/>
    <rect id="Rectangle_107" data-name="Rectangle 107" width="1.717" height="9.65" transform="translate(94.967 92.272)" fill="#a8569d" opacity="0.2"/>
    <rect id="Rectangle_108" data-name="Rectangle 108" width="1.717" height="14.106" transform="translate(98.238 87.817)" fill="#a8569d" opacity="0.2"/>
    <rect id="Rectangle_109" data-name="Rectangle 109" width="1.717" height="19.299" transform="translate(101.508 82.624)" fill="#a8569d" opacity="0.2"/>
    <rect id="Rectangle_110" data-name="Rectangle 110" width="1.717" height="19.299" transform="translate(104.78 82.624)" fill="#a8569d" opacity="0.2"/>
  </g>
</svg>
