<svg xmlns="http://www.w3.org/2000/svg" width="170.065" height="116.975" viewBox="0 0 170.065 116.975">
  <g id="p-slide-1" transform="translate(-182.787 -183.378)">
    <g id="Group_9" data-name="Group 9" transform="translate(196.265 250.102)">
      <path id="Path_141" data-name="Path 141" d="M591.041,229.12H534.717a1.044,1.044,0,0,1-1.043-1.043V179.912a1.044,1.044,0,0,1,1.043-1.043h56.324a1.044,1.044,0,0,1,1.043,1.043v48.164a1.044,1.044,0,0,1-1.043,1.043Zm-56.324-49.834a.627.627,0,0,0-.625.625v48.166a.627.627,0,0,0,.625.625h56.324a.626.626,0,0,0,.625-.625V179.912a.627.627,0,0,0-.625-.625Z" transform="translate(-533.674 -178.869)" fill="#e6e6e6"/>
      <circle id="Ellipse_19" data-name="Ellipse 19" cx="4.249" cy="4.249" r="4.249" transform="translate(5.546 37.437)" fill="#e6e6e6"/>
      <path id="Path_142" data-name="Path 142" d="M631.108,377.72a.708.708,0,0,0,0,1.416h33.383a.708.708,0,0,0,0-1.416Z" transform="translate(-611.501 -338.867)" fill="#e6e6e6"/>
      <path id="Path_143" data-name="Path 143" d="M631.108,399.466a.708.708,0,0,0,0,1.416h14.365a.708.708,0,0,0,0-1.416Z" transform="translate(-611.501 -356.364)" fill="#e6e6e6"/>
      <path id="Path_154" data-name="Path 154" d="M659.529,239.695H603.205a1.044,1.044,0,0,1-1.043-1.043V213.934a1.044,1.044,0,0,1,1.043-1.043h56.324a1.044,1.044,0,0,1,1.043,1.043v24.718A1.044,1.044,0,0,1,659.529,239.695Z" transform="translate(-588.78 -206.244)" fill="#a8569d"/>
      <path id="Path_155" data-name="Path 155" d="M663.29,256.985a.708.708,0,0,0,0,1.416h33.383a.708.708,0,0,0,0-1.416Z" transform="translate(-637.395 -241.722)" fill="#fff"/>
      <path id="Path_156" data-name="Path 156" d="M663.29,277.985a.708.708,0,0,0,0,1.416h33.383a.708.708,0,0,0,0-1.416Z" transform="translate(-637.395 -258.619)" fill="#fff"/>
      <path id="Path_157" data-name="Path 157" d="M663.29,298.731a.708.708,0,0,0,0,1.416h14.365a.708.708,0,0,0,0-1.416Z" transform="translate(-637.395 -275.311)" fill="#fff"/>
    </g>
    <rect id="Rectangle_1" data-name="Rectangle 1" width="170.065" height="0.391" transform="translate(182.787 299.879)" fill="#3f3d56"/>
    <g id="Group_10" data-name="Group 10" transform="translate(273.052 283.822)">
      <path id="Path_138" data-name="Path 138" d="M647.041,548.927H590.717a1.045,1.045,0,0,1-1.043-1.043V533.912a1.044,1.044,0,0,1,1.043-1.043h56.324a1.044,1.044,0,0,1,1.043,1.043v13.972A1.044,1.044,0,0,1,647.041,548.927Zm-56.324-15.641a.627.627,0,0,0-.625.625v13.972a.627.627,0,0,0,.625.625h56.324a.626.626,0,0,0,.625-.625v-13.97a.626.626,0,0,0-.625-.625Z" transform="translate(-589.674 -532.869)" fill="#e6e6e6"/>
      <circle id="Ellipse_18" data-name="Ellipse 18" cx="4.249" cy="4.249" r="4.249" transform="translate(5.546 3.244)" fill="#e6e6e6"/>
      <path id="Path_139" data-name="Path 139" d="M687.108,556.72a.708.708,0,1,0,0,1.416h33.383a.708.708,0,1,0,0-1.416Z" transform="translate(-667.501 -552.06)" fill="#e6e6e6"/>
      <path id="Path_140" data-name="Path 140" d="M687.108,578.466a.708.708,0,1,0,0,1.416h14.365a.708.708,0,1,0,0-1.416Z" transform="translate(-667.501 -569.557)" fill="#e6e6e6"/>
    </g>
    <g id="Group_11" data-name="Group 11" transform="matrix(0.914, 0.407, -0.407, 0.914, 274.62, 245.469)">
      <path id="Path_135" data-name="Path 135" d="M57.367,16.058H1.043A1.044,1.044,0,0,1,0,15.015V1.043A1.044,1.044,0,0,1,1.043,0H57.367A1.044,1.044,0,0,1,58.41,1.043V15.015a1.044,1.044,0,0,1-1.043,1.043ZM1.043.416a.627.627,0,0,0-.625.625V15.013a.627.627,0,0,0,.625.625H57.367a.626.626,0,0,0,.625-.625V1.043a.627.627,0,0,0-.625-.625Z" transform="translate(0 0)" fill="#e6e6e6"/>
      <circle id="Ellipse_17" data-name="Ellipse 17" cx="4.249" cy="4.249" r="4.249" transform="translate(5.546 3.244)" fill="#e6e6e6"/>
      <path id="Path_136" data-name="Path 136" d="M.708,0a.708.708,0,1,0,0,1.416H34.091a.708.708,0,1,0,0-1.416Z" transform="translate(18.899 4.66)" fill="#e6e6e6"/>
      <path id="Path_137" data-name="Path 137" d="M.708,0a.708.708,0,1,0,0,1.416H15.073a.708.708,0,1,0,0-1.416Z" transform="translate(18.899 8.909)" fill="#e6e6e6"/>
    </g>
    <g id="Group_12" data-name="Group 12" transform="translate(219.672 233.668) rotate(-4.992)">
      <path id="Path_138-2" data-name="Path 138" d="M57.367,16.058H1.043A1.044,1.044,0,0,1,0,15.015V1.043A1.044,1.044,0,0,1,1.043,0H57.367A1.044,1.044,0,0,1,58.41,1.043V15.015a1.044,1.044,0,0,1-1.043,1.043ZM1.043.416a.627.627,0,0,0-.625.625V15.013a.627.627,0,0,0,.625.625H57.367a.626.626,0,0,0,.625-.625V1.043a.626.626,0,0,0-.625-.625Z" transform="translate(0 0)" fill="#e6e6e6"/>
      <circle id="Ellipse_18-2" data-name="Ellipse 18" cx="4.249" cy="4.249" r="4.249" transform="translate(5.546 3.244)" fill="#e6e6e6"/>
      <path id="Path_139-2" data-name="Path 139" d="M.708,0a.708.708,0,1,0,0,1.416H34.091a.708.708,0,0,0,0-1.416Z" transform="translate(18.899 4.66)" fill="#e6e6e6"/>
      <path id="Path_140-2" data-name="Path 140" d="M.708,0a.708.708,0,1,0,0,1.416H15.073a.708.708,0,0,0,0-1.416Z" transform="translate(18.899 8.909)" fill="#e6e6e6"/>
    </g>
    <g id="Group_13" data-name="Group 13" transform="translate(250.765 183.378)">
      <circle id="Ellipse_21" data-name="Ellipse 21" cx="6.448" cy="6.448" r="6.448" transform="translate(10.367 3.363)" fill="#2f2e41"/>
      <circle id="Ellipse_22" data-name="Ellipse 22" cx="4.799" cy="4.799" r="4.799" transform="translate(12.147 7.23)" fill="#feb8b8"/>
      <path id="Path_159" data-name="Path 159" d="M843.437,627.32s-8.792-1.563-14.459.391l1.661,13.189-.391,2.149,11.723-.391-.782-2.149Z" transform="translate(-819.197 -608.327)" fill="#feb8b8"/>
      <path id="Path_160" data-name="Path 160" d="M840.678,640.775a59.14,59.14,0,0,1-6.057-.384,1.659,1.659,0,0,1-1.477-1.689l.143-6.168.017-.024a4.28,4.28,0,0,0,.234-5.225,1.25,1.25,0,0,1-.206-.688h0c-.1-.137-.12.079-.059-.074a.49.49,0,0,1,.359-.3l.97-.194a.488.488,0,0,1,.558.323c.326.972,1.6,4.1,4.507,4.1,2.432,0,3.339-3.441,3.393-4.236a.489.489,0,0,1,.487-.454h1.211a.511.511,0,0,1,.4.182.484.484,0,0,1,.048.538c-1.383,2.542.638,6.565.659,6.6l.013.025-.57,5.919a1.669,1.669,0,0,1-1.284,1.461A15.654,15.654,0,0,1,840.678,640.775Z" transform="translate(-822.549 -607.548)" fill="#ccc"/>
      <path id="Path_161" data-name="Path 161" d="M791.026,718.954a10.574,10.574,0,0,1-3.47-.486,3.1,3.1,0,0,1-2.119-1.954,2.579,2.579,0,0,1,.314-2.281c1.679-2.515,7.507-3.224,8.289-3.308l.414-3.452a1.667,1.667,0,0,1,1.623-1.463l9.815-.153a1.645,1.645,0,0,1,1.661,1.363l.558,3.068-6.436,3.121.973,2.725-.063.042C800.7,717.433,795.284,718.954,791.026,718.954Z" transform="translate(-784.054 -671.995)" fill="#2f2e41"/>
      <path id="Path_162" data-name="Path 162" d="M858.857,725.722s8.988-1.172,8.4,3.517-7.425,8.011-17.78,0l1.172-2.345s5.862,1.563,8.206.391Z" transform="translate(-835.692 -687.873)" fill="#2f2e41"/>
      <path id="Path_163" data-name="Path 163" d="M824.165,726.36s0-2.345-1.954-2.149-5.471.391-5.471.391-1.172.782.391,1.172,6.252,2.345,6.252,2.345Z" transform="translate(-809.011 -686.752)" fill="#feb8b8"/>
      <path id="Path_164" data-name="Path 164" d="M873.478,724.36s0-2.345,1.954-2.149,5.471.391,5.471.391,1.172.781-.391,1.172-6.253,2.345-6.253,2.345Z" transform="translate(-855.003 -685.143)" fill="#feb8b8"/>
      <path id="Path_165" data-name="Path 165" d="M903.693,649.076l-2.915-10.107s-.586-3.517-1.172-6.839-2.735-2.931-2.735-2.931l-.391.2v5.275l.391,4.885,3.9,10.727a2.052,2.052,0,1,0,2.922-1.207Z" transform="translate(-873.509 -610.304)" fill="#feb8b8"/>
      <path id="Path_166" data-name="Path 166" d="M799.891,631.2s-2.149-.391-2.735,2.931-1.172,6.839-1.172,6.839l-2.915,10.107a2.052,2.052,0,1,0,2.922,1.207l3.9-10.727.391-4.885v-4.839A.707.707,0,0,0,799.891,631.2Z" transform="translate(-789.427 -611.913)" fill="#feb8b8"/>
      <path id="Path_167" data-name="Path 167" d="M841.335,567.77a14.271,14.271,0,0,0,6.174,2.034l-.651-.78a4.785,4.785,0,0,0,1.477.293,1.618,1.618,0,0,0,1.319-.617,1.5,1.5,0,0,0,.1-1.39,2.851,2.851,0,0,0-.9-1.121,5.339,5.339,0,0,0-4.969-.888,3.191,3.191,0,0,0-1.485.952,1.8,1.8,0,0,0-.364,1.673" transform="translate(-829.14 -558.689)" fill="#2f2e41"/>
      <path id="Path_168" data-name="Path 168" d="M796.341,536.626a14.749,14.749,0,0,0-5.366-3.47,7.55,7.55,0,0,0-4.065-.5,3.876,3.876,0,0,0-3.017,2.542,4.8,4.8,0,0,0,.49,3.284c.48,1.024,1.121,1.973,1.509,3.036a6.93,6.93,0,0,1-6.973,9.294,34.491,34.491,0,0,1,3.863,1.138,4.048,4.048,0,0,0,3.807-.622c1.024-.987,1.045-2.592.995-4.014l-.221-6.339a8.055,8.055,0,0,1,.319-3.2,2.744,2.744,0,0,1,2.391-1.878,3.924,3.924,0,0,1,2.2.99,4.482,4.482,0,0,0,2.163,1.082c.815.072,1.743-.53,1.682-1.345" transform="translate(-778.92 -532.547)" fill="#2f2e41"/>
    </g>
    <path id="Path_133" data-name="Path 133" d="M272.88,573.981a30.949,30.949,0,0,1-1.446,8.555c-.02.064-.041.128-.062.192h-5.4c.006-.058.012-.122.017-.192.36-4.136-1.7-29.006-4.175-33.31C262.036,549.575,273.3,560.841,272.88,573.981Z" transform="translate(72.72 -282.849)" fill="#e6e6e6"/>
    <path id="Path_134" data-name="Path 134" d="M267.688,644.529c-.045.064-.092.129-.14.192H263.5l.107-.192c.669-1.207,2.648-4.815,4.485-8.555,1.973-4.02,3.785-8.191,3.633-9.7C271.772,626.612,273.138,636.994,267.688,644.529Z" transform="translate(77.508 -344.841)" fill="#e6e6e6"/>
  </g>
</svg>
