<svg id="p-slide-2" xmlns="http://www.w3.org/2000/svg" width="178.747" height="119.524" viewBox="0 0 178.747 119.524">
  <rect id="Rectangle_111" data-name="Rectangle 111" width="131.556" height="84.254" transform="translate(0.056 0.075)" fill="#e6e6e6"/>
  <rect id="Rectangle_112" data-name="Rectangle 112" width="124.033" height="32.118" transform="translate(3.818 10.642)" fill="#fff"/>
  <rect id="Rectangle_113" data-name="Rectangle 113" width="26.23" height="1.506" transform="translate(34.67 15.282)" fill="#e6e6e6"/>
  <rect id="Rectangle_114" data-name="Rectangle 114" width="40.505" height="1.506" transform="translate(34.67 20.774)" fill="#a8569d"/>
  <rect id="Rectangle_115" data-name="Rectangle 115" width="33.011" height="1.506" transform="translate(34.67 25.949)" fill="#e6e6e6"/>
  <rect id="Rectangle_116" data-name="Rectangle 116" width="19.271" height="1.506" transform="translate(34.67 31.104)" fill="#e6e6e6"/>
  <rect id="Rectangle_117" data-name="Rectangle 117" width="29.085" height="1.506" transform="translate(34.67 36.259)" fill="#e6e6e6"/>
  <rect id="Rectangle_118" data-name="Rectangle 118" width="3.212" height="3.212" transform="translate(22.715 14.746)" fill="#e6e6e6"/>
  <rect id="Rectangle_119" data-name="Rectangle 119" width="3.212" height="3.212" transform="translate(22.715 19.921)" fill="#a8569d"/>
  <rect id="Rectangle_120" data-name="Rectangle 120" width="3.212" height="3.212" transform="translate(22.715 25.095)" fill="#e6e6e6"/>
  <rect id="Rectangle_121" data-name="Rectangle 121" width="3.212" height="3.212" transform="translate(22.715 30.27)" fill="#e6e6e6"/>
  <rect id="Rectangle_122" data-name="Rectangle 122" width="3.212" height="3.212" transform="translate(22.715 35.445)" fill="#e6e6e6"/>
  <rect id="Rectangle_123" data-name="Rectangle 123" width="10.706" height="10.706" transform="translate(99.799 22.062)" fill="#e6e6e6"/>
  <rect id="Rectangle_124" data-name="Rectangle 124" width="124.033" height="32.118" transform="translate(3.818 47.222)" fill="#fff"/>
  <rect id="Rectangle_125" data-name="Rectangle 125" width="3.212" height="3.212" transform="translate(28.246 50.076)" fill="#e6e6e6"/>
  <rect id="Rectangle_126" data-name="Rectangle 126" width="3.212" height="3.212" transform="translate(22.715 50.076)" fill="#a8569d"/>
  <path id="Path_1899" data-name="Path 1899" d="M445.975,405.248a12.162,12.162,0,0,0-19.634-1.814l-.783-.684a13.2,13.2,0,0,1,21.311,1.968Z" transform="translate(-368.803 -348.149)" fill="#e6e6e6"/>
  <path id="Path_1900" data-name="Path 1900" d="M533.616,447l-.863-.58a12.168,12.168,0,0,0,.373-12.961l.895-.529A13.208,13.208,0,0,1,533.616,447Z" transform="translate(-455.954 -376.362)" fill="#a8569d"/>
  <path id="Path_1901" data-name="Path 1901" d="M411.5,439.892a13.2,13.2,0,0,1-.108-17.487l.783.684a12.16,12.16,0,0,0,.1,16.109Z" transform="translate(-354.639 -367.803)" fill="#a8569d"/>
  <path id="Path_1902" data-name="Path 1902" d="M435.973,511.5a13.221,13.221,0,0,1-9.835-4.4l.774-.694a12.162,12.162,0,0,0,19.161-1.335l.863.58A13.192,13.192,0,0,1,435.973,511.5Z" transform="translate(-369.274 -435.019)" fill="#a8569d"/>
  <rect id="Rectangle_127" data-name="Rectangle 127" width="10.706" height="10.706" transform="translate(99.799 57.036)" fill="#e6e6e6"/>
  <rect id="Rectangle_128" data-name="Rectangle 128" width="10.706" height="10.706" transform="translate(22.269 63.994)" fill="#e6e6e6"/>
  <rect id="Rectangle_129" data-name="Rectangle 129" width="131.556" height="5.589" fill="#a8569d"/>
  <circle id="Ellipse_43" data-name="Ellipse 43" cx="1.036" cy="1.036" r="1.036" transform="translate(3.117 1.822)" fill="#fff"/>
  <circle id="Ellipse_44" data-name="Ellipse 44" cx="1.036" cy="1.036" r="1.036" transform="translate(7.049 1.822)" fill="#fff"/>
  <circle id="Ellipse_45" data-name="Ellipse 45" cx="1.036" cy="1.036" r="1.036" transform="translate(10.981 1.822)" fill="#fff"/>
  <path id="Path_1903" data-name="Path 1903" d="M817.166,579.037h2.663l1.267-10.273h-3.931Z" transform="translate(-664.37 -462.415)" fill="#ffb8b8"/>
  <path id="Path_1904" data-name="Path 1904" d="M935.558,749.441H940.8a3.343,3.343,0,0,1,3.343,3.342v.109h-8.588Z" transform="translate(-783.442 -633.689)" fill="#2f2e41"/>
  <path id="Path_1905" data-name="Path 1905" d="M781.694,536.8l1.965,1.8,7.868-6.725-2.9-2.653Z" transform="translate(-635.531 -430.268)" fill="#ffb8b8"/>
  <path id="Path_1906" data-name="Path 1906" d="M894.048,694.271l3.871,3.54h0a3.343,3.343,0,0,1,.211,4.722l-.073.08-6.337-5.8Z" transform="translate(-747.8 -588.835)" fill="#2f2e41"/>
  <path id="Path_1907" data-name="Path 1907" d="M799.349,419.284l-.755,15.1,1.887,16.418-5.661.755L791.234,430.8,790.1,416.642Z" transform="translate(-642.367 -338.737)" fill="#2f2e41"/>
  <path id="Path_1908" data-name="Path 1908" d="M930.241,498.249s2.265,14.908-2.453,19.815a174.844,174.844,0,0,0-11.134,13.587l-4.529-5.662,11.511-12.266-2.265-8.3-9.247-4.34,1.51-10.379,13.587-.189Z" transform="translate(-764.391 -423.175)" fill="#2f2e41"/>
  <circle id="Ellipse_46" data-name="Ellipse 46" cx="4.622" cy="4.622" r="4.622" transform="translate(150.838 31.297)" fill="#ffb8b8"/>
  <path id="Path_1909" data-name="Path 1909" d="M813.148,227.224l.708,1.073,1.887,5.284-1.51,20.569-8.87.189-1.132-23.589,2.372-2.965Z" transform="translate(-653.855 -184.737)" fill="#ccc"/>
  <path id="Path_1910" data-name="Path 1910" d="M887.387,378.675l-1.51-.189s-.377.189-.566,1.51-2.453,13.021-2.453,13.021l3.019,14.342,3.4-4.529L887.2,394.9l2.076-7.926Z" transform="translate(-740.596 -332.097)" fill="#2f2e41"/>
  <path id="Path_1911" data-name="Path 1911" d="M878.152,248.1h1.132l2.831,15.285-2.642,11.889-2.642-4.34.755-4.718-.377-4.152-1.321-2.453Z" transform="translate(-712.112 -201.709)" fill="#2f2e41"/>
  <path id="Path_1912" data-name="Path 1912" d="M932.421,291.338l-.84-.21s-.63-3.571-2.1-3.151-5.252.84-5.252-.84,3.571-3.151,5.672-2.941,4.784.907,5.462,3.991c1.087,4.945-2.243,6.194-2.243,6.194l.055-.18A2.8,2.8,0,0,0,932.421,291.338Z" transform="translate(-774.23 -255.419)" fill="#2f2e41"/>
  <path id="Path_1913" data-name="Path 1913" d="M900.015,360.845l6.039-2.453,1.415-1.038,4.246,18.777,2.831-8.492-.849-10.851,7.832,4.057-2.642,12.832-.377,4.906,1.132,3.963s3.963,2.831,2.642,5.85-2.831,3.208-2.831,3.208-6.416-6.039-6.794-7.548-.944-4.152-.944-4.152-3.208,12.078-6.982,11.889-3.774-4.152-3.774-4.152l.944-4.152,1.51-4.34-.755-7.171Z" transform="translate(-754.544 -314.455)" fill="#2f2e41"/>
  <path id="Path_1914" data-name="Path 1914" d="M858.278,767.986H808.167a.187.187,0,1,1,0-.374h50.111a.187.187,0,1,1,0,.374Z" transform="translate(-679.718 -648.462)" fill="#ccc"/>
</svg>
