<svg xmlns="http://www.w3.org/2000/svg" width="39.747" height="39.747" viewBox="0 0 39.747 39.747">
  <g id="close" transform="translate(0 -0.135)">
    <path id="Path_1916" data-name="Path 1916" d="M2.576,39.882a2.575,2.575,0,0,1-1.821-4.4L35.351.89a2.575,2.575,0,0,1,3.641,3.641L4.4,39.127a2.563,2.563,0,0,1-1.821.754Zm0,0" transform="translate(0 0)" fill="#f44336"/>
    <path id="Path_1917" data-name="Path 1917" d="M37.171,39.882a2.568,2.568,0,0,1-1.821-.754L.756,4.531A2.575,2.575,0,0,1,4.4.89l34.6,34.6a2.575,2.575,0,0,1-1.821,4.4Zm0,0" transform="translate(0)" fill="#f44336"/>
  </g>
</svg>
